<svg width="106" height="106" viewBox="0 0 106 106" fill="none" xmlns="http://www.w3.org/2000/svg">
<path d="M83 32.7891C83 49.3576 69.5685 62.7891 53 62.7891C36.4315 62.7891 23 49.3576 23 32.7891C23 16.2205 36.4315 2.78906 53 2.78906C69.5685 2.78906 83 16.2205 83 32.7891Z" stroke="white" stroke-opacity="0.2" stroke-width="5"/>
<path d="M25.5 43.7891C12.5608 47.116 3 58.8511 3 72.8167C3 89.37 16.4315 102.789 33 102.789C49.5685 102.789 63 89.37 63 72.8167C63 69.0467 62.3035 65.4396 61.0315 62.1161" stroke="white" stroke-opacity="0.2" stroke-width="5"/>
<path d="M53 95.1576C58.3075 99.9032 65.3165 102.789 73 102.789C89.5685 102.789 103 89.37 103 72.8167C103 58.8511 93.439 47.116 80.5 43.7891" stroke="white" stroke-opacity="0.2" stroke-width="5"/>
</svg>
