<svg width="100" height="101" viewBox="0 0 100 101" fill="none" xmlns="http://www.w3.org/2000/svg">
<g clip-path="url(#clip0_6018_1722)">
<path d="M97.8516 48.8359H94.8772C93.8834 25.5619 75.224 6.90566 51.9531 5.91191V2.9375C51.9531 1.85879 51.0787 0.984375 50 0.984375C48.9213 0.984375 48.0469 1.85879 48.0469 2.9375V5.91191C24.7729 6.90566 6.1166 25.5648 5.12285 48.8359H2.14844C1.06973 48.8359 0.195312 49.7104 0.195312 50.7891C0.195312 51.8678 1.06973 52.7422 2.14844 52.7422H5.12285C6.1166 76.0162 24.776 94.6725 48.0469 95.6662V98.6406C48.0469 99.7193 48.9213 100.594 50 100.594C51.0787 100.594 51.9531 99.7193 51.9531 98.6406V95.6662C75.2271 94.6725 93.8834 76.0131 94.8772 52.7422H97.8516C98.9303 52.7422 99.8047 51.8678 99.8047 50.7891C99.8047 49.7104 98.9303 48.8359 97.8516 48.8359ZM78.3203 52.7422H81.1871C80.2154 68.4207 67.6316 81.0045 51.9531 81.9762V79.1094C51.9531 78.0307 51.0787 77.1562 50 77.1562C48.9213 77.1562 48.0469 78.0307 48.0469 79.1094V81.9762C32.3684 81.0045 19.7846 68.4207 18.8129 52.7422H21.6797C22.7584 52.7422 23.6328 51.8678 23.6328 50.7891C23.6328 49.7104 22.7584 48.8359 21.6797 48.8359H18.8129C19.7846 33.1574 32.3684 20.5736 48.0469 19.602V22.4688C48.0469 23.5475 48.9213 24.4219 50 24.4219C51.0787 24.4219 51.9531 23.5475 51.9531 22.4688V19.602C67.6316 20.5738 80.2154 33.1574 81.1871 48.8359H78.3203C77.2416 48.8359 76.3672 49.7104 76.3672 50.7891C76.3672 51.8678 77.2416 52.7422 78.3203 52.7422ZM48.0469 9.82109V15.6881C30.2135 16.6693 15.8803 31.0025 14.8988 48.8359H9.03203C10.0246 27.7707 26.9816 10.8137 48.0469 9.82109ZM51.9531 91.757V85.89C69.7865 84.9086 84.1197 70.5756 85.1012 52.742H90.9682C89.9754 73.8074 73.0184 90.7645 51.9531 91.757Z" fill="white" fill-opacity="0.2"/>
<path d="M68.5547 48.8359H65.4986C64.6143 41.7797 59.0094 36.175 51.9531 35.2904V32.2344C51.9531 31.1557 51.0787 30.2812 50 30.2812C48.9213 30.2812 48.0469 31.1557 48.0469 32.2344V35.2904C40.9906 36.1748 35.3859 41.7797 34.5014 48.8359H31.4453C30.3666 48.8359 29.4922 49.7104 29.4922 50.7891C29.4922 51.8678 30.3666 52.7422 31.4453 52.7422H34.5014C35.3857 59.7984 40.9906 65.4031 48.0469 66.2877V69.3438C48.0469 70.4225 48.9213 71.2969 50 71.2969C51.0787 71.2969 51.9531 70.4225 51.9531 69.3438V66.2877C59.0094 65.4033 64.6141 59.7984 65.4986 52.7422H68.5547C69.6334 52.7422 70.5078 51.8678 70.5078 50.7891C70.5078 49.7104 69.6334 48.8359 68.5547 48.8359ZM51.9531 62.342V59.5781C51.9531 58.4994 51.0787 57.625 50 57.625C48.9213 57.625 48.0469 58.4994 48.0469 59.5781V62.342C43.1477 61.5162 39.2729 57.6414 38.4471 52.7422H41.2109C42.2896 52.7422 43.1641 51.8678 43.1641 50.7891C43.1641 49.7104 42.2896 48.8359 41.2109 48.8359H38.4471C39.2729 43.9367 43.1477 40.0619 48.0469 39.2361V42C48.0469 43.0787 48.9213 43.9531 50 43.9531C51.0787 43.9531 51.9531 43.0787 51.9531 42V39.2361C56.8523 40.0619 60.7271 43.9367 61.5529 48.8359H58.7891C57.7104 48.8359 56.8359 49.7104 56.8359 50.7891C56.8359 51.8678 57.7104 52.7422 58.7891 52.7422H61.5529C60.7271 57.6414 56.8523 61.5162 51.9531 62.342Z" fill="white" fill-opacity="0.2"/>
<path d="M49.9999 52.723C51.0702 52.723 51.9378 51.8553 51.9378 50.7851C51.9378 49.7148 51.0702 48.8472 49.9999 48.8472C48.9296 48.8472 48.062 49.7148 48.062 50.7851C48.062 51.8553 48.9296 52.723 49.9999 52.723Z" fill="white" fill-opacity="0.2"/>
</g>
<defs>
<clipPath id="clip0_6018_1722">
<rect width="100" height="100" fill="white" transform="translate(0 0.789062)"/>
</clipPath>
</defs>
</svg>
