<svg width="100" height="101" viewBox="0 0 100 101" fill="none" xmlns="http://www.w3.org/2000/svg">
<g clip-path="url(#clip0_6018_1736)">
<path d="M92.2286 17.0935L95.6702 15.9516L49.9922 0.789062L4.33008 15.9516L19.905 21.1221V45.4996C19.905 46.8636 20.9677 47.7359 23.6956 48.3703L25.0597 50.3688C23.5688 52.8271 22.4426 55.5075 21.7448 58.3624L13.4022 59.9643V70.0833L21.7448 71.6852C22.4268 74.556 23.5688 77.2523 25.0597 79.6947L20.2857 86.7367L27.4545 93.9057L34.4965 89.1317C36.9391 90.6226 39.6354 91.7486 42.4902 92.4465L44.0922 100.789H54.2112L55.813 92.4465C58.6837 91.7645 61.3641 90.6226 63.8226 89.1317L70.8646 93.9057L78.0176 86.7367L73.2437 79.6947C74.7345 77.2523 75.8765 74.556 76.5585 71.6852L84.9169 70.0833V59.9643L76.5585 58.3624C75.8606 55.5075 74.7345 52.8271 73.2437 50.3688L74.6076 48.3386C78.3824 47.387 78.3983 46.245 78.3983 45.4996V21.6931L89.0565 18.1562V36.126L86.1381 39.0285L88.3745 41.2807L90.6425 39.0285L92.8947 41.2807L95.1311 39.0285L92.2286 36.126V17.0935ZM49.1517 77.4742C42.2841 77.4742 36.717 71.9072 36.717 65.0397C36.717 58.1721 42.2841 52.5892 49.1517 52.5892C56.0192 52.5892 61.6021 58.1721 61.6021 65.0397C61.6021 71.9072 56.0192 77.4742 49.1517 77.4742ZM75.2262 44.9128C69.9447 47.4345 28.3586 47.4345 23.0771 44.9128V22.1848L49.9922 31.1142L75.2262 22.7398V44.9128Z" fill="white" fill-opacity="0.2"/>
</g>
<defs>
<clipPath id="clip0_6018_1736">
<rect width="100" height="100" fill="white" transform="translate(0 0.789062)"/>
</clipPath>
</defs>
</svg>
